<svg id="Capa_1" enable-background="new 0 0 512 512" height="512" viewBox="0 0 512 512" width="512" xmlns="http://www.w3.org/2000/svg"><g><g><path d="m154.065 167.76c-1.269 0-2.546-.161-3.805-.491-5.019-1.316-9.001-5.133-10.529-10.092l-15.111-49.041c-7.547-24.494-24.15-44.64-46.752-56.727l-10.353-5.537c-9.771-5.225-14.635-15.983-12.105-26.769 2.53-10.785 11.67-18.258 22.743-18.593l14.878-.451c56.727-1.712 108.081 34.979 124.802 89.248l2.899 9.41c1.679 5.449.124 11.378-4.014 15.301l-52.333 49.627c-2.819 2.674-6.527 4.115-10.32 4.115z" fill="#ae774e"/></g><g><path d="m357.936 167.76c-3.794 0-7.501-1.44-10.322-4.116l-52.333-49.627c-4.138-3.923-5.692-9.853-4.014-15.301l2.899-9.41c16.721-54.269 68.093-90.973 124.802-89.248l14.879.451c11.073.335 20.213 7.808 22.743 18.594s-2.334 21.543-12.104 26.769l-10.354 5.537c-22.601 12.086-39.204 32.232-46.752 56.727l-15.11 49.041c-1.528 4.958-5.51 8.776-10.529 10.092-1.258.329-2.537.491-3.805.491z" fill="#966641"/></g><g><path d="m382.077 224.16c-5.239 0-10.111-2.737-12.833-7.235l-31.086-51.379c-2.285-3.777-2.79-8.369-1.381-12.553s4.59-7.534 8.694-9.159l104.651-41.422c9.475-3.749 19.958-1.731 27.363 5.269 7.403 6.999 10.008 17.354 6.796 27.023l-11.146 33.551c-10.745 32.346-40.857 54.651-74.931 55.505l-15.752.395c-.124.003-.25.005-.375.005z" fill="#a1a1a7"/></g><g><path d="m129.924 224.16c-.126 0-.251-.001-.377-.005l-15.753-.395c-34.072-.854-64.185-23.16-74.93-55.505l-11.146-33.551c-3.212-9.67-.608-20.025 6.796-27.024 7.403-6.999 17.889-9.018 27.363-5.268l104.651 41.422c4.105 1.625 7.286 4.975 8.695 9.159s.904 8.775-1.381 12.553l-31.085 51.379c-2.722 4.498-7.594 7.235-12.833 7.235z" fill="#d3d3d8"/></g><g><path d="m271.089 512h-30.177c-23.476 0-45.948-10.008-61.653-27.456l-26.118-29.016c-11.658-12.951-18.844-28.949-20.783-46.266l-22.202-207.715c-2.563-22.895 4.604-46.025 19.665-63.458l29.493-34.139c15.77-18.254 38.649-28.723 62.771-28.723h67.832c24.122 0 47.001 10.469 62.771 28.723l29.492 34.139c15.062 17.435 22.229 40.564 19.665 63.459l-22.201 207.714c-1.939 17.316-9.126 33.314-20.782 46.266l-26.12 29.016c-15.705 17.448-38.176 27.456-61.653 27.456z" fill="#ececf1"/></g><g><path d="m382.18 138.09-29.492-34.139c-15.771-18.254-38.649-28.723-62.771-28.723h-33.917v436.772h15.089c23.477 0 45.948-10.008 61.652-27.456l26.12-29.016c11.656-12.951 18.843-28.949 20.782-46.266l22.201-207.714c2.564-22.893-4.603-46.023-19.664-63.458z" fill="#d3d3d8"/></g><path d="m317.45 403.221c-5.97-5.744-15.466-5.56-21.209.41l-8.836 9.185c-4.474 4.65-9.805 8.139-15.647 10.335v-34.229l22.166-12.727c7.185-4.124 9.664-13.292 5.539-20.477-4.124-7.185-13.293-9.666-20.477-5.539l-22.228 12.762-22.229-12.763c-7.185-4.125-16.352-1.645-20.477 5.54s-1.645 16.353 5.54 20.478l22.166 12.727v34.228c-5.842-2.196-11.172-5.684-15.646-10.333l-8.837-9.186c-5.744-5.971-15.239-6.153-21.209-.41-5.97 5.744-6.153 15.239-.41 21.209l8.838 9.187c13.8 14.342 32.361 22.241 52.265 22.241 19.903 0 38.464-7.899 52.265-22.242l8.837-9.186c5.743-5.971 5.559-15.467-.411-21.21z" fill="#575f64"/><g><path d="m317.45 403.221c-5.97-5.744-15.466-5.56-21.209.41l-8.836 9.185c-4.474 4.65-9.805 8.139-15.647 10.335v-34.229l22.166-12.727c7.185-4.124 9.664-13.292 5.539-20.477-4.124-7.185-13.293-9.666-20.477-5.539l-22.228 12.762-.758-.436v93.333c.254.003.505.019.759.019 19.903 0 38.464-7.899 52.265-22.242l8.837-9.186c5.743-5.969 5.559-15.465-.411-21.208z" fill="#292929"/></g><path d="m190 275.57c-8.284 0-15-6.716-15-15v-30c0-8.284 6.716-15 15-15s15 6.716 15 15v30c0 8.284-6.716 15-15 15z" fill="#444"/><path d="m322 275.57c-8.284 0-15-6.716-15-15v-30c0-8.284 6.716-15 15-15s15 6.716 15 15v30c0 8.284-6.716 15-15 15z" fill="#292929"/></g></svg>